<svg width="200" height="200" viewBox="0 0 200 200" fill="none" xmlns="http://www.w3.org/2000/svg">
<g id="Icon">
<g id="Background">
<path id="Polygon 1" d="M95.1625 1.59596C97.6072 0.574005 100.358 0.564099 102.81 1.56841L193.79 38.8329C197.546 40.3714 200 44.0278 200 48.0868V142.842C200 146.615 197.876 150.068 194.507 151.768L103.534 197.701C100.673 199.145 97.2943 199.131 94.4461 197.663L5.41936 151.788C2.09132 150.073 0 146.642 0 142.898V48.0347C0 44.0019 2.42238 40.3638 6.14316 38.8084L95.1625 1.59596Z" fill="#D30D0E"/>
<path id="Polygon 2" d="M98.0808 16.7978C99.3093 16.2871 100.691 16.2871 101.919 16.7978L183.522 50.7194C185.387 51.4947 186.603 53.3163 186.603 55.3363V135.206C186.603 137.076 185.559 138.789 183.898 139.648L102.295 181.814C100.856 182.558 99.1445 182.558 97.7047 181.814L16.1021 139.648C14.4409 138.789 13.3975 137.076 13.3975 135.206V55.3363C13.3975 53.3163 14.6129 51.4947 16.4782 50.7194L98.0808 16.7978Z" fill="black"/>
</g>
<g id="First_Letter">
<path id="Polygon 3" d="M94 33.5V93.5L27.6987 124V61L94 33.5Z" fill="#CC1010"/>
<path id="Polygon 4" d="M75 59V85.5L47 98V70.5L75 59Z" fill="black"/>
</g>
<g id="Second_Letter">
<path id="Polygon 5" d="M171 60.314V120L106 93.5V33.5L171 60.314Z" fill="#CC1010"/>
<path id="Polygon 6" d="M148 75.5V110.625L125 101.267V66L148 75.5Z" fill="black"/>
</g>
</g>
</svg>
